<mxfile host="app.diagrams.net" modified="2023-08-19T07:06:18.272Z" agent="Mozilla/5.0 (Windows NT 10.0; Win64; x64) AppleWebKit/537.36 (KHTML, like Gecko) Chrome/116.0.0.0 Safari/537.36" version="21.6.8" etag="o_86Sf4YC9wqADjVB0NB" type="github">
  <diagram name="第 1 页" id="EEym6Ry3GdguBf-QrCjO">
    <mxGraphModel>
      <root>
        <mxCell id="0" />
        <mxCell id="1" parent="0" />
      </root>
    </mxGraphModel>
  </diagram>
</mxfile>
